HIERARCHY
ROOT Hips
{
	OFFSET 62.890800 8.863803 43.568401
	CHANNELS 6 Xposition Yposition Zposition Zrotation Xrotation Yrotation
	JOINT Chest
	{
		OFFSET -0.160400 1.630001 7.806301
		CHANNELS 6 Xposition Yposition Zposition Zrotation Xrotation Yrotation
		JOINT Chest2
		{
			OFFSET 0.000000 0.000000 3.197998
			CHANNELS 6 Xposition Yposition Zposition Zrotation Xrotation Yrotation
			JOINT Neck
			{
				OFFSET 0.000000 0.000001 7.440701
				CHANNELS 6 Xposition Yposition Zposition Zrotation Xrotation Yrotation
				JOINT Head
				{
					OFFSET 0.000000 0.000000 2.173901
					CHANNELS 6 Xposition Yposition Zposition Zrotation Xrotation Yrotation
					End Site
					{
						OFFSET 0.000000 0.000001 10.420303
					}
				}
			}
			JOINT LeftCollar
			{
				OFFSET 2.426399 -1.880099 4.759399
				CHANNELS 6 Xposition Yposition Zposition Zrotation Xrotation Yrotation
				JOINT LeftShoulder
				{
					OFFSET 4.420197 0.000000 0.000000
					CHANNELS 6 Xposition Yposition Zposition Zrotation Xrotation Yrotation
					JOINT LeftElbow
					{
						OFFSET 0.000000 -0.000001 -10.347099
						CHANNELS 6 Xposition Yposition Zposition Zrotation Xrotation Yrotation
						JOINT LeftWrist
						{
							OFFSET 0.000000 -0.000001 -12.496300
							CHANNELS 6 Xposition Yposition Zposition Zrotation Xrotation Yrotation
							End Site
							{
								OFFSET 0.000000 0.000000 -2.173901
							}
						}
					}
				}
			}
			JOINT RightCollar
			{
				OFFSET -2.781502 -1.903799 5.072601
				CHANNELS 6 Xposition Yposition Zposition Zrotation Xrotation Yrotation
				JOINT RightShoulder
				{
					OFFSET -4.012100 0.000000 0.000000
					CHANNELS 6 Xposition Yposition Zposition Zrotation Xrotation Yrotation
					JOINT RightElbow
					{
						OFFSET 0.000000 -0.000001 -10.346600
						CHANNELS 6 Xposition Yposition Zposition Zrotation Xrotation Yrotation
						JOINT RightWrist
						{
							OFFSET 0.000000 -0.000001 -12.562599
							CHANNELS 6 Xposition Yposition Zposition Zrotation Xrotation Yrotation
							End Site
							{
								OFFSET 0.000000 0.000000 -2.173901
							}
						}
					}
				}
			}
		}
	}
	JOINT LeftHip
	{
		OFFSET 2.047997 -0.047200 -2.693199
		CHANNELS 6 Xposition Yposition Zposition Zrotation Xrotation Yrotation
		JOINT LeftKnee
		{
			OFFSET 0.000000 -0.000001 -18.824400
			CHANNELS 6 Xposition Yposition Zposition Zrotation Xrotation Yrotation
			JOINT LeftAnkle
			{
				OFFSET 0.000000 -0.000002 -19.078199
				CHANNELS 6 Xposition Yposition Zposition Zrotation Xrotation Yrotation
				End Site
				{
					OFFSET 0.000000 -9.342100 0.000001
				}
			}
		}
	}
	JOINT RightHip
	{
		OFFSET -2.129898 -0.022300 -2.538300
		CHANNELS 6 Xposition Yposition Zposition Zrotation Xrotation Yrotation
		JOINT RightKnee
		{
			OFFSET 0.000000 -0.000001 -18.644600
			CHANNELS 6 Xposition Yposition Zposition Zrotation Xrotation Yrotation
			JOINT RightAnkle
			{
				OFFSET 0.000000 -0.000002 -18.801399
				CHANNELS 6 Xposition Yposition Zposition Zrotation Xrotation Yrotation
				End Site
				{
					OFFSET 0.000000 -8.914600 0.000001
				}
			}
		}
	}
}
MOTION
Frames: 5
Frame Time: 0.041667
81.959305 87.764191 41.125828 3252.949610 -10.457324 335.583586 -0.160397 1.629995 7.806306 -19.871638 12.763664 19.337268 0.000009 0.000011 3.198005 10.430055 -7.961146 0.866838 0.000008 -0.000007 7.440698 -27.000043 9.328646 21.363442 -0.000004 0.000006 2.173912 -1.249559 0.548884 3.296662 2.426410 -1.880093 4.759396 -169.313723 182.294785 -186.497851 4.420184 -0.000001 -0.000003 -22.467608 -5.873627 -118.927145 -0.000003 0.000005 -10.347082 938.625578 -155.014422 -173.298674 0.000007 -0.000004 -12.496297 69.177788 0.803384 -2.431311 -2.781504 -1.903800 5.072600 -173.050096 -196.167623 176.697294 -4.012095 -0.000006 0.000002 -2.390972 -9.720293 454.846667 0.000010 -0.000011 -10.346600 -278.466457 -123.961759 -300.455186 0.000007 -0.000003 -12.562593 872.428587 556.524415 -886.928587 2.048006 -0.047201 -2.693202 725.663230 -9.140813 0.383102 -0.000007 -0.000009 -18.824398 -343.233863 25.077936 3.618895 -0.000001 0.000011 -19.078199 -398.522386 22.333288 7.375629 -2.129895 -0.022307 -2.538301 -753.649849 -33.828766 34.339302 0.000001 -0.000011 -18.644608 197.841019 -240.933284 172.521727 -0.000002 0.000008 -18.801399 169.551277 180.008256 166.060531
81.977905 87.756607 41.128632 3253.070477 -10.444261 335.541758 -0.160388 1.630000 7.806301 -19.949128 12.612380 19.342162 0.000012 0.000001 3.198002 10.438933 -7.945115 0.870481 -0.000003 0.000009 7.440707 -27.176325 9.351525 21.523658 0.000000 -0.000014 2.173910 -1.242696 0.475475 3.186419 2.426406 -1.880094 4.759397 -169.205246 182.337405 -186.399865 4.420198 0.000003 -0.000006 -22.521268 -5.830286 -119.015896 -0.000011 -0.000006 -10.347084 938.573778 -155.003411 -173.330530 0.000001 0.000004 -12.496295 69.101960 0.911480 -2.446401 -2.781489 -1.903800 5.072599 -173.015454 -196.195353 176.743234 -4.012096 -0.000007 -0.000000 -2.414964 -10.175080 454.859535 0.000002 -0.000004 -10.346605 -278.331110 -123.871095 -300.694843 -0.000001 -0.000014 -12.562606 872.254062 556.520863 -886.840286 2.048005 -0.047202 -2.693191 725.302214 -9.083274 0.400117 0.000006 0.000000 -18.824398 -343.041852 24.931854 3.713983 -0.000010 0.000006 -19.078201 -398.513507 22.343446 7.380180 -2.129893 -0.022299 -2.538300 -750.864279 -31.560340 35.973469 -0.000003 -0.000002 -18.644600 196.016184 -240.074483 171.501720 0.000003 0.000005 -18.801392 168.881577 180.110927 165.221812
81.996811 87.748199 41.131927 3253.180415 -10.509107 335.503509 -0.160377 1.629991 7.806296 -20.072012 12.573854 19.380575 -0.000002 0.000005 3.198004 10.446045 -7.963283 0.876035 -0.000005 -0.000004 7.440703 -27.383156 9.349846 21.686523 -0.000006 -0.000006 2.173909 -1.199782 0.411533 3.089289 2.426397 -1.880093 4.759394 -169.112656 182.253722 -186.110470 4.420188 0.000005 -0.000002 -22.570847 -5.756577 -119.356326 -0.000007 -0.000003 -10.347088 938.408105 -155.038901 -173.454102 0.000006 -0.000003 -12.496306 69.234793 0.974996 -2.469330 -2.781511 -1.903801 5.072603 -172.867034 -196.335482 176.648622 -4.012089 -0.000001 -0.000008 -2.509467 -10.665702 454.948136 0.000005 0.000001 -10.346603 -278.246771 -123.809856 -300.910158 0.000004 -0.000004 -12.562605 872.087897 556.523868 -886.731986 2.048021 -0.047206 -2.693203 724.719790 -8.913843 0.377299 -0.000006 0.000007 -18.824396 -342.787032 24.730498 3.864208 -0.000011 -0.000012 -19.078201 -398.392094 22.345804 7.394692 -2.129874 -0.022307 -2.538306 -750.384526 -31.059011 36.379811 -0.000003 -0.000009 -18.644608 195.522716 -239.832476 171.384268 -0.000008 -0.000000 -18.801407 168.752910 180.041273 165.271358
82.012817 87.739395 41.136433 3253.254728 -10.614747 335.449059 -0.160387 1.629999 7.806301 -20.200522 12.603348 19.497323 0.000006 -0.000011 3.198008 10.747221 -7.988126 0.966165 -0.000012 -0.000017 7.440695 -27.922351 9.361444 21.780176 -0.000008 -0.000009 2.173904 -1.128910 0.356909 2.988034 2.426395 -1.880109 4.759395 -169.339692 182.120902 -185.859652 4.420190 0.000003 -0.000006 -22.585354 -5.757826 -119.748188 -0.000007 0.000009 -10.347075 938.098506 -154.994286 -173.641563 0.000005 -0.000002 -12.496293 69.533170 0.994979 -2.535981 -2.781512 -1.903816 5.072593 -172.940158 -196.465665 176.398173 -4.012093 -0.000015 -0.000003 -2.633011 -11.122085 455.076735 0.000004 -0.000011 -10.346596 -278.191692 -123.793149 -301.107742 -0.000002 -0.000015 -12.562598 871.952003 556.538457 -886.633304 2.048010 -0.047201 -2.693193 724.048246 -8.668683 0.341203 -0.000007 -0.000012 -18.824398 -342.531965 24.494431 4.068415 -0.000003 -0.000006 -19.078201 -398.175686 22.347296 7.409664 -2.129890 -0.022297 -2.538297 -750.713796 -31.248368 36.369050 0.000005 0.000012 -18.644596 195.500559 -239.858485 171.663377 -0.000006 0.000000 -18.801397 168.850158 179.927332 165.609070
82.025604 87.729805 41.142925 3253.300845 -10.693582 335.369364 -0.160401 1.630001 7.806321 -20.287549 12.585650 19.672757 0.000013 -0.000001 3.198002 10.806229 -8.138769 0.977928 -0.000003 0.000004 7.440701 -28.299688 9.500942 21.957458 -0.000003 0.000003 2.173902 -1.028333 0.441049 2.857872 2.426398 -1.880086 4.759397 -169.361685 181.891981 -185.716655 4.420197 -0.000010 0.000001 -22.597961 -5.763553 -120.053880 0.000004 -0.000000 -10.347077 937.831637 -154.955614 -173.805092 -0.000001 -0.000012 -12.496299 69.743970 0.996726 -2.592673 -2.781498 -1.903786 5.072602 -172.815452 -196.673207 176.139719 -4.012094 -0.000000 0.000009 -2.698812 -11.477641 455.202738 0.000002 -0.000010 -10.346590 -278.120385 -123.819554 -301.264673 -0.000003 -0.000005 -12.562600 871.857965 556.588946 -886.590683 2.047996 -0.047196 -2.693176 723.334628 -8.415984 0.317966 -0.000001 0.000005 -18.824404 -342.267227 24.229165 4.306776 0.000005 0.000002 -19.078199 -397.886741 22.353334 7.425122 -2.129893 -0.022300 -2.538291 -752.557455 -32.749285 35.527434 0.000003 -0.000003 -18.644596 196.401079 -240.313594 172.576300 -0.000006 0.000002 -18.801407 169.325130 179.707495 166.531077
